<svg id="Camada_1" data-name="Camada 1" xmlns="http://www.w3.org/2000/svg" viewBox="-160 -150 600 600">
    <g id="Camada_4" data-name="Camada 4">
        <path
            d="M352.4,249.1l-78,43.7a14.72,14.72,0,0,1-19.9-5.6l-47.9-85.6a14.72,14.72,0,0,1,5.6-19.9l78-43.7a14.72,14.72,0,0,1,19.9,5.6L358,229.2A14.72,14.72,0,0,1,352.4,249.1Z"
            transform="translate(-124.14 -132.66)" fill="none" stroke="#0f69b2" stroke-miterlimit="10"
            stroke-width="7" />
        <circle cx="160.96" cy="222.04" r="23.8" fill="none" stroke="#a7c4d2" stroke-miterlimit="10"
            stroke-width="10" />
        <path
            d="M130.5,164.5H169c-1.7-1-3.5-2-5.2-3,9.8,17.7,19.5,35.5,29.3,53.2q23.55,42.75,47,85.4c3.6,6.5,7.2,13,10.7,19.5a6.12,6.12,0,0,0,8.2,2.2q51-28.35,102.1-56.6c4.8-2.7,9.6-5.3,14.4-8,6.8-3.7.7-14.1-6.1-10.4q-51,28.35-102.1,56.6c-4.8,2.7-9.6,5.3-14.4,8,2.7.7,5.5,1.4,8.2,2.2-9.8-17.7-19.5-35.5-29.3-53.2q-23.55-42.75-47-85.4c-3.6-6.5-7.2-13-10.7-19.5a6.09,6.09,0,0,0-5.2-3H130.4c-7.7,0-7.7,12,.1,12Z"
            transform="translate(-124.14 -132.66)" fill="#a7c4d2" stroke="#a7c4d2" stroke-miterlimit="10" />
        <path
            d="M235.2,208.8l-.5.3a4,4,0,0,1-5.4-1.5l-15.2-27.2c-1.1-1.9.6-1.9,2.5-3l2.2-1.1c1.9-1.1,1.6-2,2.7-.1l15.2,27.2A4,4,0,0,1,235.2,208.8Z"
            transform="translate(-124.14 -132.66)" fill="#0f69b2" />
        <path
            d="M235.1,187h0a4.37,4.37,0,0,1-5.8-1.6l-5.7-10.1c-1.1-2,1.8-1.1,3.8-2.3h0c2-1.1,2.4-3.9,3.6-1.9l5.7,10.1A4.32,4.32,0,0,1,235.1,187Z"
            transform="translate(-124.14 -132.66)" fill="#0f69b2" />
        <path d="M326,230.5l-3.1,1.7c-.3.2-.6,0-.6-.4v-7c0-.3.4-.5.7-.4l3.1,1.8,3.1,1.8c.3.2.3.6,0,.7Z"
            transform="translate(-124.14 -132.66)" fill="#0f69b2" stroke="#0f69b2" stroke-miterlimit="10" />
        <path
            d="M333.8,243.3h0a2.47,2.47,0,0,1-3.4-.9L323.6,231c-.7-1.2,3.3-3.6,4-2.4l7,11.5A2.18,2.18,0,0,1,333.8,243.3Z"
            transform="translate(-124.14 -132.66)" fill="#0f69b2" />
        <path d="M311,239.1l-3.1,1.7c-.3.2-.6,0-.6-.4v-7c0-.3.4-.5.7-.4l3.1,1.8,3.1,1.8c.3.2.3.6,0,.7Z"
            transform="translate(-124.14 -132.66)" fill="#0f69b2" stroke="#0f69b2" stroke-miterlimit="10" />
        <path
            d="M318.8,251.9h0a2.47,2.47,0,0,1-3.4-.9L308,238.9c-.7-1.2,3.6-3.6,4.3-2.4l7.4,12.1A2.37,2.37,0,0,1,318.8,251.9Z"
            transform="translate(-124.14 -132.66)" fill="#0f69b2" />
        <line x1="187.46" y1="128.14" x2="219.56" y2="109.94" fill="none" />
        <path
            d="M312.4,262c10.7-6.1,21.4-12.1,32.1-18.2a1.5,1.5,0,0,0-1.5-2.6c-10.7,6.1-21.4,12.1-32.1,18.2a1.5,1.5,0,0,0,1.5,2.6Z"
            transform="translate(-124.14 -132.66)" fill="#0f69b2" />
    </g>
</svg>