<svg width="504" height="221" viewBox="0 0 504 221" fill="none" xmlns="http://www.w3.org/2000/svg">
<g clip-path="url(#clip0_1_2)">
<path d="M10.4895 129V32.3567H67.2727L64.6153 42.9861H22.5175V74.8742H62.2377V85.084H22.5175V118.371H69.93V129H10.4895ZM118.343 69.1399C121.047 69.1399 123.332 69.373 125.197 69.8392C127.061 70.3054 128.693 71.0513 130.092 72.077C131.49 73.1026 132.749 74.408 133.868 75.9931C134.987 77.5781 136.199 79.4429 137.504 81.5875C140.115 79.3497 142.073 77.8112 143.378 76.9721C144.777 76.0397 145.756 75.4802 146.315 75.2938C146.968 75.014 147.248 74.9208 147.155 75.014C147.155 75.014 147.061 74.8276 146.875 74.4546C145.849 72.3101 143.984 69.9791 141.28 67.4616C138.576 64.9441 134.614 62.8462 129.392 61.1679C122.679 59.5828 116.479 59.3963 110.791 60.6085C105.103 61.8206 100.162 64.0583 95.9658 67.3217C91.77 70.4919 88.46 74.5478 86.0358 79.4896C83.7048 84.4313 82.5393 89.8858 82.5393 95.8532C82.5393 100.888 83.3784 105.55 85.0567 109.839C86.7351 114.128 89.1127 117.811 92.1896 120.888C95.2665 123.965 98.9029 126.389 103.099 128.161C107.294 129.839 111.91 130.632 116.945 130.538C121.327 130.445 125.01 130.166 127.994 129.699C131.071 129.326 133.728 128.814 135.966 128.161C138.204 127.508 140.208 126.809 141.98 126.063C143.751 125.224 145.616 124.385 147.574 123.545L147.294 119.07C139.835 121.587 133.122 122.566 127.155 122.007C121.187 121.354 116.059 119.862 111.77 117.531C107.574 115.107 104.218 112.217 101.7 108.86C99.2758 105.41 97.8772 102.1 97.5043 98.9301C96.8516 93.7087 96.9915 89.2798 97.9239 85.6434C98.9495 82.007 100.488 79.07 102.539 76.8322C104.591 74.5012 106.968 72.7297 109.672 71.5175C112.469 70.3054 115.36 69.5129 118.343 69.1399ZM194.433 59.2099C187.999 59.2099 182.498 60.1889 177.929 62.1469C173.36 64.105 169.631 66.7157 166.74 69.9791C163.85 73.1492 161.705 76.8322 160.307 81.028C158.908 85.2238 158.162 89.6061 158.069 94.1749C158.256 98.8369 159.048 103.266 160.447 107.462C161.845 111.657 163.99 115.387 166.88 118.65C169.771 121.821 173.454 124.338 177.929 126.203C182.498 128.068 187.999 129 194.433 129C200.587 129 205.808 128.068 210.097 126.203C214.479 124.338 218.069 121.867 220.866 118.79C223.663 115.62 225.715 111.937 227.02 107.741C228.419 103.452 229.211 98.9301 229.398 94.1749C229.211 89.6061 228.419 85.2238 227.02 81.028C225.622 76.8322 223.524 73.1492 220.726 69.9791C217.929 66.7157 214.386 64.105 210.097 62.1469C205.808 60.1889 200.587 59.2099 194.433 59.2099ZM174.153 96.5525V91.6574C174.153 86.9954 174.619 83.1259 175.552 80.049C176.484 76.8788 177.789 74.3614 179.468 72.4966C181.239 70.6318 183.337 69.3264 185.761 68.5805C188.186 67.7413 190.843 67.3684 193.733 67.4616C196.624 67.3684 199.281 67.6947 201.705 68.4406C204.13 69.1865 206.181 70.4919 207.859 72.3567C209.631 74.2215 210.983 76.739 211.915 79.9091C212.848 83.0793 213.314 86.9954 213.314 91.6574V96.5525C213.314 101.214 212.848 105.131 211.915 108.301C210.983 111.471 209.631 113.988 207.859 115.853C206.181 117.718 204.13 119.023 201.705 119.769C199.281 120.515 196.624 120.841 193.733 120.748C190.843 120.841 188.186 120.515 185.761 119.769C183.337 118.93 181.239 117.578 179.468 115.713C177.789 113.848 176.484 111.378 175.552 108.301C174.619 105.131 174.153 101.214 174.153 96.5525Z" fill="#1378BD"/>
<path d="M300.115 61.835C300.115 67.4417 298.81 72.0817 296.2 75.755C293.687 79.3317 289.965 81.7967 285.035 83.15V83.44C291.222 83.8267 295.91 85.905 299.1 89.675C302.387 93.445 304.03 98.7617 304.03 105.625C304.03 114.228 301.42 120.802 296.2 125.345C291.077 129.888 283.585 132.16 273.725 132.16C268.215 132.16 263.43 131.918 259.37 131.435C255.31 130.952 251.83 130.227 248.93 129.26V118.24C252.7 119.11 256.277 119.738 259.66 120.125C263.14 120.415 267.2 120.56 271.84 120.56C278.897 120.56 284.068 119.303 287.355 116.79C290.738 114.18 292.43 110.168 292.43 104.755C292.43 99.535 290.932 95.765 287.935 93.445C285.035 91.0283 280.395 89.82 274.015 89.82H259.805V79.09H271.115C276.625 79.09 280.878 77.785 283.875 75.175C286.968 72.4683 288.515 68.65 288.515 63.72C288.515 58.79 287.258 55.2617 284.745 53.135C282.328 50.9117 278.413 49.8 273 49.8C269.713 49.8 265.895 50.09 261.545 50.67C257.292 51.25 254.005 51.83 251.685 52.41V41.97C254.972 40.9067 258.742 40.085 262.995 39.505C267.248 38.925 271.55 38.635 275.9 38.635C283.827 38.635 289.82 40.6167 293.88 44.58C298.037 48.5433 300.115 54.295 300.115 61.835ZM349.13 132.16C337.433 132.16 329.168 128.825 324.335 122.155C319.501 115.485 317.085 104.078 317.085 87.935C317.085 70.3417 320.178 57.7267 326.365 50.09C332.648 42.4533 342.846 38.635 356.96 38.635C359.086 38.635 361.406 38.7317 363.92 38.925C366.53 39.1183 368.511 39.36 369.865 39.65V50.525C367.351 50.235 365.08 50.0417 363.05 49.945C361.02 49.8483 358.99 49.8 356.96 49.8C347.39 49.8 340.575 51.975 336.515 56.325C332.551 60.675 330.231 68.4083 329.555 79.525C334.001 77.1083 338.255 75.3683 342.315 74.305C346.375 73.2417 350.725 72.71 355.365 72.71C363.775 72.71 369.961 74.9817 373.925 79.525C377.985 84.0683 380.015 91.0767 380.015 100.55C380.015 110.507 377.308 118.288 371.895 123.895C366.481 129.405 358.893 132.16 349.13 132.16ZM368.125 100.985C368.125 94.5083 366.82 89.9167 364.21 87.21C361.696 84.5033 357.201 83.15 350.725 83.15C347.148 83.15 343.523 83.6817 339.85 84.745C336.176 85.8083 332.648 87.3067 329.265 89.24C329.361 100.937 330.811 109.105 333.615 113.745C336.418 118.288 341.445 120.56 348.695 120.56C355.075 120.56 359.908 118.917 363.195 115.63C366.481 112.343 368.125 107.462 368.125 100.985ZM460.442 85.325C460.442 102.628 457.929 114.76 452.902 121.72C447.875 128.68 438.982 132.16 426.222 132.16C418.005 132.16 411.625 131.145 407.082 129.115C402.635 127.085 399.252 123.75 396.932 119.11C395.192 115.63 393.887 111.183 393.017 105.77C392.244 100.357 391.857 93.5417 391.857 85.325C391.857 68.1183 394.37 56.035 399.397 49.075C404.424 42.115 413.365 38.635 426.222 38.635C434.342 38.635 440.674 39.65 445.217 41.68C449.76 43.71 453.192 47.045 455.512 51.685C457.155 55.165 458.364 59.6117 459.137 65.025C460.007 70.3417 460.442 77.1083 460.442 85.325ZM445.507 61.11C444.25 56.9533 442.172 54.0533 439.272 52.41C436.372 50.67 432.022 49.8 426.222 49.8C417.619 49.8 411.819 52.265 408.822 57.195C405.825 62.125 404.327 71.5017 404.327 85.325C404.327 99.535 405.729 108.96 408.532 113.6C411.432 118.24 417.329 120.56 426.222 120.56C434.729 120.56 440.48 118.143 443.477 113.31C446.474 108.38 447.972 99.0517 447.972 85.325C447.972 79.4283 447.779 74.5467 447.392 70.68C447.005 66.8133 446.377 63.6233 445.507 61.11Z" fill="#1378BD"/>
<path d="M159.55 108.91V113.21C159.55 113.21 184.65 86.41 238.35 80.81L239.15 65.21C239.05 65.11 193.85 71.01 159.55 108.91V108.91Z" fill="#F9B141" stroke="white" stroke-miterlimit="10"/>
</g>
<defs>
<clipPath id="clip0_1_2">
<rect width="503.7" height="220.7" fill="white"/>
</clipPath>
</defs>
</svg>
