<svg id="Camada_1" data-name="Camada 1" xmlns="http://www.w3.org/2000/svg" viewBox="-40 -40 600 600">
    <g id="Camada_1-2" data-name="Camada 1">
        <path
            d="M177.4,365.1v26.8a4.69,4.69,0,0,1-7,4.1l-23.2-13.4L124,369.2a4.69,4.69,0,0,1,0-8.1l23.2-13.4,23.2-13.4a4.69,4.69,0,0,1,7,4.1Z"
            transform="translate(0 0)" fill="#a7c4d2" />
        <g id="Camada_1-3" data-name="Camada_1">
            <path d="M0,0V512H512V0Z" transform="translate(0 0)" fill="none" />
        </g>
        <g id="_1692195695344" data-name=" 1692195695344">
            <path d="M177.5,353l201.8.1c4.4,0,8.1,4.1,8.1,9.2v.2c.1,5.2-3.6,9.5-8.1,9.5l-201.8.1V353Z"
                transform="translate(0 0)" fill="#a7c4d2" />
        </g>
        <path
            d="M331.5,145.4v26.5a4.65,4.65,0,0,0,7,4l23-13.3,23-13.3a4.69,4.69,0,0,0,0-8.1l-23-13.3-23-13.3a4.65,4.65,0,0,0-7,4Z"
            transform="translate(0 0)" fill="#a7c4d2" />
        <g id="_1692195695344-2" data-name=" 1692195695344">
            <path d="M331.5,133.4l-199.8.1c-4.4,0-8,4-8.1,9.1v.2c-.1,5.2,3.6,9.4,8.1,9.4l199.9.1-.1-18.9Z"
                transform="translate(0 0)" fill="#a7c4d2" />
        </g>
    </g>
    <path
        d="M273.4,200.3h-84a8.75,8.75,0,0,1-8.8-8.8V189a8.75,8.75,0,0,1,8.8-8.8h84a8.75,8.75,0,0,1,8.8,8.8v2.4A9,9,0,0,1,273.4,200.3Z"
        transform="translate(0 0)" fill="none" stroke="#0f69b2" stroke-miterlimit="10" stroke-width="7" />
    <path
        d="M307.1,220.7h-84a8.75,8.75,0,0,1-8.8-8.8v-2.4a8.75,8.75,0,0,1,8.8-8.8h84a8.75,8.75,0,0,1,8.8,8.8v2.4A8.81,8.81,0,0,1,307.1,220.7Z"
        transform="translate(0 0)" fill="none" stroke="#0f69b2" stroke-miterlimit="10" stroke-width="7" />
    <path
        d="M288.9,246.2H205a8.75,8.75,0,0,1-8.8-8.8V235a8.75,8.75,0,0,1,8.8-8.8h84a8.75,8.75,0,0,1,8.8,8.8v2.4A9,9,0,0,1,288.9,246.2Z"
        transform="translate(0 0)" fill="none" stroke="#0f69b2" stroke-miterlimit="10" stroke-width="7" />
    <path
        d="M288.9,268.2H205a8.75,8.75,0,0,1-8.8-8.8V257a8.75,8.75,0,0,1,8.8-8.8h84a8.75,8.75,0,0,1,8.8,8.8v2.4A9,9,0,0,1,288.9,268.2Z"
        transform="translate(0 0)" fill="none" stroke="#0f69b2" stroke-miterlimit="10" stroke-width="7" />
    <path
        d="M290.6,290.7h-84a8.75,8.75,0,0,1-8.8-8.8v-2.4a8.75,8.75,0,0,1,8.8-8.8h84a8.75,8.75,0,0,1,8.8,8.8v2.4A8.88,8.88,0,0,1,290.6,290.7Z"
        transform="translate(0 0)" fill="none" stroke="#0f69b2" stroke-miterlimit="10" stroke-width="7" />
    <path
        d="M290.6,315.1h-84a8.75,8.75,0,0,1-8.8-8.8v-2.4a8.75,8.75,0,0,1,8.8-8.8h84a8.75,8.75,0,0,1,8.8,8.8v2.4A8.75,8.75,0,0,1,290.6,315.1Z"
        transform="translate(0 0)" fill="none" stroke="#0f69b2" stroke-miterlimit="10" stroke-width="7" />
    <circle cx="287.9" cy="276.9" r="52.4" fill="#fff" stroke="#0f69b2" stroke-miterlimit="10" stroke-width="7" />
    <path
        d="M288.9,262.2c2.8,0,5.9,1.9,5.9,4.8a4.55,4.55,0,0,0,9.1,0c0-6.1-4.6-11.2-10.5-12.9v-.7a4.46,4.46,0,0,0-4.5-4.4,4.55,4.55,0,0,0-4.6,4.4v.7c-6,1.6-10.5,6.7-10.5,12.9,0,7.8,7.1,13.6,15,13.6,2.8,0,5.9,1.9,5.9,4.8,0,3.1-3.1,4.8-5.9,4.8s-5.9-1.9-5.9-4.8a4.46,4.46,0,0,0-4.5-4.4,4.53,4.53,0,0,0-4.5,4.4c0,6.1,4.6,11.2,10.5,12.9v.4a4.55,4.55,0,0,0,9.1,0v-.4c5.9-1.7,10.5-6.7,10.4-12.9,0-7.8-7.2-13.6-15-13.6-2.8,0-5.9-1.9-5.9-4.8C282.9,263.9,286,262.2,288.9,262.2Z"
        transform="translate(0 0)" fill="#0f69b2" />
</svg>