<svg id="Camada_1" data-name="Camada 1" xmlns="http://www.w3.org/2000/svg" viewBox="-180 -130 600 600">
    <g id="Camada_1-2" data-name="Camada 1">
        <path d="M168.2,194.1H177s28.8,14.2,36.7,12.9" transform="translate(-122.4 -104.41)" fill="none"
            stroke="#a7c4d2" stroke-miterlimit="10" stroke-width="10" />
        <g id="Camada_3" data-name="Camada 3">
            <path
                d="M360.8,386.9h11.5a10.07,10.07,0,0,0,10.1-10.1V316a10.07,10.07,0,0,0-10.1-10.1H360.8A10.07,10.07,0,0,0,350.7,316v60.8A10.07,10.07,0,0,0,360.8,386.9Z"
                transform="translate(-122.4 -114.41)" fill="none" stroke="#a7c4d2" stroke-miterlimit="10"
                stroke-width="14" />
            <path
                d="M348,321.3s-35-12.3-71.5,4.5a14.78,14.78,0,0,1-5.5,1.3c-8.3.4-31.3,1.4-41.1.3a8.92,8.92,0,0,0-7,2.1,10.19,10.19,0,0,0-3.1,4.3s-3,6.8,6.1,12.7c0,0,5,5.2,64.8,5.9"
                transform="translate(-122.4 -114.41)" fill="none" stroke="#a7c4d2" stroke-miterlimit="10"
                stroke-width="14" />
            <path
                d="M348,375.1s-65.9,12.5-74.9,13.2a6.75,6.75,0,0,0-1.4.2,34.31,34.31,0,0,1-24.8-4.8L156.5,319a9.48,9.48,0,0,1-4-6.4c-.7-4.8.4-11.7,12.3-11.6a8.33,8.33,0,0,1,2.2.3c6.6,1.8,41.1,12,54.6,29.8"
                transform="translate(-122.4 -114.41)" fill="none" stroke="#a7c4d2" stroke-miterlimit="10"
                stroke-width="14" />
        </g>
        <g id="Camada_1-2" data-name="Camada 1">
            <g id="Camada_1-3" data-name="Camada 1">
                <g id="Camada_1-4" data-name="Camada_1">
                    <path d="M0,0V512H512V0Z" transform="translate(0 0)" fill="none" />
                </g>
            </g>
        </g>
        <path
            d="M165.6,130.7s14.7-2.2,22.2-6.2a18.94,18.94,0,0,1,8.1-2.3c13.4-.5,49.2-1.6,60.5.2,0,0,9.3.9,19.4,8.3L313.9,165"
            transform="translate(-122.4 -114.41)" fill="none" stroke="#a7c4d2" stroke-miterlimit="10"
            stroke-width="14" />
        <path
            d="M150.6,207.7h-9.4a11.82,11.82,0,0,1-11.8-11.8V134.1a11.82,11.82,0,0,1,11.8-11.8h9.4a11.82,11.82,0,0,1,11.8,11.8v61.8A11.82,11.82,0,0,1,150.6,207.7Z"
            transform="translate(-122.4 -114.41)" fill="none" stroke="#a7c4d2" stroke-miterlimit="10"
            stroke-width="14" />
    </g>
    <path d="M233.5,176.4c-3.2-1-6.4.9-7-1.7-7.7,10-10.2,17.5-10.2,31a59.1,59.1,0,1,0,31.2-52.2"
        transform="translate(-122.4 -114.41)" fill="#fff" stroke="#0f69b2" stroke-miterlimit="10" stroke-width="7" />
    <path
        d="M270.4,188.1a5.19,5.19,0,0,1-2.2,6.1,18.42,18.42,0,0,1-3.8,1.7,4.87,4.87,0,0,1-5-1.5v.1c0,8.8,8,15.3,16.9,15.3,3.2,0,6.7,2.1,6.7,5.5s-3.4,5.5-6.7,5.5-6.7-2.1-6.7-5.5a5,5,0,0,0-5.1-5,5.1,5.1,0,0,0-5.1,5c0,6.9,5.2,12.7,11.9,14.6v.4a5.15,5.15,0,0,0,10.3,0v-.4c6.7-1.9,11.9-7.6,11.8-14.6,0-8.8-8.1-15.3-16.9-15.3-3.2,0-6.7-2.1-6.7-5.5s3.4-5.5,6.7-5.5,6.7,2.1,6.7,5.5a5.15,5.15,0,0,0,10.3,0c0-6.9-5.2-12.7-11.9-14.6V179a5,5,0,0,0-5.1-5,5.12,5.12,0,0,0-5.2,5v.8"
        transform="translate(-122.4 -114.41)" fill="#0f69b2" />
    <g id="Camada_4" data-name="Camada 4">
        <path d="M243.4,148.3l28.8,28.3a14.72,14.72,0,0,1-1,21.6h0a14.8,14.8,0,0,1-19.6-.5l-25.9-23.9s-11.2,11.1-38.6,0"
            transform="translate(-122.4 -114.41)" fill="none" stroke="#a7c4d2" stroke-miterlimit="10"
            stroke-width="14" />
    </g>
</svg>