<svg id="Camada_1" data-name="Camada 1" xmlns="http://www.w3.org/2000/svg" viewBox="-40 -40 600 600">
    <g id="Camada_3" data-name="Camada 3">
        <path
            d="M155.6,386.6H141.2a10.07,10.07,0,0,1-10.1-10.1V304.2a10.07,10.07,0,0,1,10.1-10.1h14.4a10.07,10.07,0,0,1,10.1,10.1v72.3A10.07,10.07,0,0,1,155.6,386.6Z"
            transform="translate(0 0)" fill="none" stroke="#a7c4d2" stroke-miterlimit="10" stroke-width="14" />
        <path
            d="M168.6,311.6s38.3-14,78.1,5.2a15.62,15.62,0,0,0,6,1.5c9,.5,34.1,1.6,44.9.3a9.79,9.79,0,0,1,7.6,2.3,11.79,11.79,0,0,1,3.3,4.9s3.3,7.7-6.7,14.5c0,0-5.4,5.9-70.8,6.7"
            transform="translate(0 0)" fill="none" stroke="#a7c4d2" stroke-miterlimit="10" stroke-width="14" />
        <path
            d="M168.6,373.1s72,14.2,81.8,15a7.72,7.72,0,0,1,1.5.2,35.56,35.56,0,0,0,27.1-5.5l98.9-73.9a11,11,0,0,0,4.4-7.3c.7-5.4-.4-13.3-13.4-13.3a6.72,6.72,0,0,0-2.4.4c-7.2,2.1-44.9,13.7-59.6,34.1"
            transform="translate(0 0)" fill="none" stroke="#a7c4d2" stroke-miterlimit="10" stroke-width="14" />
    </g>
    <g id="Camada_1-2" data-name="Camada 1">
        <g id="Camada_1-3" data-name="Camada 1">
            <g id="Camada_1-4" data-name="Camada_1">
                <path d="M0,0V512H512V0Z" transform="translate(0 0)" fill="none" />
            </g>
        </g>
    </g>
    <path
        d="M265.5,151.7H174.8a11.18,11.18,0,0,1-11.2-11.2h0a11.18,11.18,0,0,1,11.2-11.2h90.7a11.18,11.18,0,0,1,11.2,11.2h0A11.18,11.18,0,0,1,265.5,151.7Z"
        transform="translate(0 0)" fill="none" stroke="#0f69b2" stroke-miterlimit="10" stroke-width="7" />
    <path
        d="M303.1,174.4H212.4a11.18,11.18,0,0,1-11.2-11.2h0A11.18,11.18,0,0,1,212.4,152h90.7a11.18,11.18,0,0,1,11.2,11.2h0A11.31,11.31,0,0,1,303.1,174.4Z"
        transform="translate(0 0)" fill="none" stroke="#0f69b2" stroke-miterlimit="10" stroke-width="7" />
    <path
        d="M282.8,202.8H192.1a11.18,11.18,0,0,1-11.2-11.2h0a11.18,11.18,0,0,1,11.2-11.2h90.7A11.18,11.18,0,0,1,294,191.6h0A11.18,11.18,0,0,1,282.8,202.8Z"
        transform="translate(0 0)" fill="none" stroke="#0f69b2" stroke-miterlimit="10" stroke-width="7" />
    <path
        d="M282.8,227.2H192.1A11.18,11.18,0,0,1,180.9,216h0a11.18,11.18,0,0,1,11.2-11.2h90.7A11.18,11.18,0,0,1,294,216h0A11.18,11.18,0,0,1,282.8,227.2Z"
        transform="translate(0 0)" fill="none" stroke="#0f69b2" stroke-miterlimit="10" stroke-width="7" />
    <path
        d="M284.7,252.4H194a11.18,11.18,0,0,1-11.2-11.2h0A11.18,11.18,0,0,1,194,230h90.7a11.18,11.18,0,0,1,11.2,11.2h0A11.31,11.31,0,0,1,284.7,252.4Z"
        transform="translate(0 0)" fill="none" stroke="#0f69b2" stroke-miterlimit="10" stroke-width="7" />
    <path
        d="M284.7,279.6H194a11.18,11.18,0,0,1-11.2-11.2h0A11.18,11.18,0,0,1,194,257.2h90.7a11.18,11.18,0,0,1,11.2,11.2h0A11.18,11.18,0,0,1,284.7,279.6Z"
        transform="translate(0 0)" fill="none" stroke="#0f69b2" stroke-miterlimit="10" stroke-width="7" />
    <circle cx="283.1" cy="237" r="58.4" fill="#fff" stroke="#0f69b2" stroke-miterlimit="10" stroke-width="7" />
    <path
        d="M284.2,220.6c3.2,0,6.6,2.1,6.6,5.4a5.05,5.05,0,0,0,10.1,0c0-6.8-5.1-12.5-11.7-14.4v-.8a4.93,4.93,0,0,0-5-4.9,5,5,0,0,0-5.1,4.9v.8c-6.7,1.8-11.7,7.5-11.7,14.4,0,8.7,7.9,15.1,16.7,15.1,3.2,0,6.6,2.1,6.6,5.4s-3.4,5.4-6.6,5.4-6.6-2.1-6.6-5.4a4.93,4.93,0,0,0-5-4.9,5,5,0,0,0-5,4.9c0,6.8,5.1,12.5,11.7,14.4v.4a5.05,5.05,0,0,0,10.1,0v-.4c6.6-1.9,11.7-7.5,11.6-14.4,0-8.7-8-15.1-16.7-15.1-3.2,0-6.6-2.1-6.6-5.4S281,220.6,284.2,220.6Z"
        transform="translate(0 0)" fill="#0f69b2" />
</svg>