<svg id="Camada_1" data-name="Camada 1" xmlns="http://www.w3.org/2000/svg" viewBox="-180 -140 600 600">
    <g id="Camada_1-2" data-name="Camada 1">
        <g id="Camada_3" data-name="Camada 3">
            <path d="M201.4,310.5V288.3a3,3,0,0,0-4.1-2.9l-20.2,7.8a3,3,0,0,0-2,2.9v16.1"
                transform="translate(-123.8 -115.35)" fill="none" stroke="#0f69b2" stroke-miterlimit="10"
                stroke-width="7" />
            <path
                d="M246,318.5h1.5a3,3,0,0,0,3-3.1V268.3a3.17,3.17,0,0,0-4.4-2.9l-20.4,9.2a3.12,3.12,0,0,0-1.8,2.9V311a4.15,4.15,0,0,1,1.1,1.2"
                transform="translate(-123.8 -115.35)" fill="none" stroke="#0f69b2" stroke-miterlimit="10"
                stroke-width="7" />
            <path
                d="M294.4,318.4c1.8,0,3.2,2.6,3.2.7V241a3.28,3.28,0,0,0-5-2.8l-19.9,12.6a3.11,3.11,0,0,0-1.5,2.8v64.7c0,1.8,1.5,0,3.2,0"
                transform="translate(-123.8 -115.35)" fill="none" stroke="#0f69b2" stroke-miterlimit="10"
                stroke-width="7" />
            <path
                d="M346.8,301.5V203.2a3.21,3.21,0,0,0-5.4-2.4l-20.9,19.9a3.59,3.59,0,0,0-1.1,2.4v91.2c0,.3.1.6.1.9C329.1,309.2,336,306.5,346.8,301.5Z"
                transform="translate(-123.8 -115.35)" fill="none" stroke="#0f69b2" stroke-miterlimit="10"
                stroke-width="7" />
        </g>
        <g id="Camada_1-3" data-name="Camada 1">
            <g id="Camada_3-2" data-name="Camada 3">
                <path
                    d="M165.6,378.5V311.6a11,11,0,0,0-11.1-11.1H141.9a11,11,0,0,0-11.1,11.1v66.9a11,11,0,0,0,11.1,11.1h12.6A11,11,0,0,0,165.6,378.5Z"
                    transform="translate(-123.8 -115.35)" fill="none" stroke="#a7c4d2" stroke-miterlimit="10"
                    stroke-width="14" />
                <path
                    d="M231.6,351.7c65.8-.8,71.3-6.5,71.3-6.5,10-6.5,6.7-14,6.7-14a11.45,11.45,0,0,0-3.4-4.7,9.76,9.76,0,0,0-7.7-2.3c-10.8,1.2-36.1.1-45.2-.3a15.09,15.09,0,0,1-6-1.4c-40.1-18.5-78.6-4.9-78.6-4.9"
                    transform="translate(-123.8 -115.35)" fill="none" stroke="#a7c4d2" stroke-miterlimit="10"
                    stroke-width="14" />
                <path
                    d="M307.6,328.3c14.8-19.6,52.8-30.8,60-32.8a9.86,9.86,0,0,1,2.4-.3c13.1-.1,14.3,7.5,13.5,12.8a10.29,10.29,0,0,1-4.4,7l-99.4,71.2a38.17,38.17,0,0,1-27.3,5.3,7.72,7.72,0,0,0-1.5-.2c-9.9-.8-82.4-14.5-82.4-14.5"
                    transform="translate(-123.8 -115.35)" fill="none" stroke="#a7c4d2" stroke-miterlimit="10"
                    stroke-width="14" />
            </g>
        </g>
        <circle cx="33.6" cy="38.95" r="21" fill="#a7c4d2" />
        <path
            d="M157.4,147.8c1.2,0,2.4.8,2.4,1.9a1.8,1.8,0,0,0,3.6,0,5.62,5.62,0,0,0-4.2-5.2v-.3a1.8,1.8,0,0,0-3.6,0v.3a5.44,5.44,0,0,0-4.2,5.2c0,3.1,2.8,5.4,6,5.4,1.2,0,2.4.8,2.4,1.9a2.17,2.17,0,0,1-2.4,1.9c-1.2,0-2.4-.8-2.4-1.9a1.8,1.8,0,1,0-3.6,0,5.62,5.62,0,0,0,4.2,5.2v.1a1.8,1.8,0,1,0,3.6,0v-.1a5.53,5.53,0,0,0,4.2-5.2c0-3.1-2.9-5.4-6-5.4-1.2,0-2.4-.8-2.4-1.9A2.17,2.17,0,0,1,157.4,147.8Z"
            transform="translate(-123.8 -115.35)" fill="#fff" />
        <circle cx="56.6" cy="93.05" r="21" fill="#a7c4d2" />
        <path
            d="M180.5,201.9c1.2,0,2.4.8,2.4,1.9a1.8,1.8,0,0,0,3.6,0,5.62,5.62,0,0,0-4.2-5.2v-.3a1.8,1.8,0,0,0-3.6,0v.3a5.44,5.44,0,0,0-4.2,5.2c0,3.1,2.8,5.4,6,5.4,1.2,0,2.4.8,2.4,1.9a2.17,2.17,0,0,1-2.4,1.9c-1.2,0-2.4-.8-2.4-1.9a1.8,1.8,0,1,0-3.6,0,5.62,5.62,0,0,0,4.2,5.2v.1a1.8,1.8,0,1,0,3.6,0v-.1a5.53,5.53,0,0,0,4.2-5.2c0-3.1-2.9-5.4-6-5.4-1.2,0-2.4-.8-2.4-1.9A2.17,2.17,0,0,1,180.5,201.9Z"
            transform="translate(-123.8 -115.35)" fill="#fff" />
        <circle cx="94.6" cy="45.55" r="21" fill="#a7c4d2" />
        <path
            d="M218.4,154.4c1.2,0,2.4.8,2.4,1.9a1.8,1.8,0,0,0,3.6,0,5.62,5.62,0,0,0-4.2-5.2v-.3a1.8,1.8,0,1,0-3.6,0v.3a5.44,5.44,0,0,0-4.2,5.2c0,3.1,2.8,5.4,6,5.4,1.2,0,2.4.8,2.4,1.9a2.17,2.17,0,0,1-2.4,1.9c-1.2,0-2.4-.8-2.4-1.9a1.8,1.8,0,0,0-3.6,0,5.62,5.62,0,0,0,4.2,5.2v.1a1.8,1.8,0,1,0,3.6,0v-.1a5.53,5.53,0,0,0,4.2-5.2c0-3.1-2.9-5.4-6-5.4-1.2,0-2.4-.8-2.4-1.9A2.29,2.29,0,0,1,218.4,154.4Z"
            transform="translate(-123.8 -115.35)" fill="#fff" />
    </g>
    <g id="Camada_3-3" data-name="Camada 3">
        <path
            d="M142.4,277.5C182.8,253.3,307.8,176.9,327.3,145a3.8,3.8,0,0,0-.5-4.4l-7.9-7.7a3.54,3.54,0,0,1,1.9-6l54.5-8a3.41,3.41,0,0,1,3.9,3.9l-6.4,50.8a3.41,3.41,0,0,1-5.6,2.2l-5.9-5.2a3.39,3.39,0,0,0-4.6.1c-15.9,14.8-113.9,94-211.9,115.4C140.9,286.7,139.3,279.5,142.4,277.5Z"
            transform="translate(-123.8 -115.35)" fill="none" stroke="#0f69b2" stroke-miterlimit="10"
            stroke-width="7" />
    </g>
</svg>